<?xml version="1.0" standalone="no"?>
<!DOCTYPE svg PUBLIC "-//W3C//DTD SVG 20010904//EN"
 "http://www.w3.org/TR/2001/REC-SVG-20010904/DTD/svg10.dtd">
<svg version="1.0" xmlns="http://www.w3.org/2000/svg"
 width="152.000000pt" height="152.000000pt" viewBox="0 0 152.000000 152.000000"
 preserveAspectRatio="xMidYMid meet">
<metadata>
Created by potrace 1.11, written by Peter Selinger 2001-2013
</metadata>
<g transform="translate(0.000000,152.000000) scale(0.100000,-0.100000)"
fill="#000000" stroke="none">
<path d="M0 760 l0 -760 760 0 760 0 0 760 0 760 -760 0 -760 0 0 -760z m1174
549 c94 -34 146 -123 146 -246 l0 -53 -79 0 -78 0 -6 58 c-9 86 -61 122 -131
91 -49 -23 -59 -126 -20 -201 9 -18 69 -84 134 -148 156 -154 175 -192 175
-345 0 -123 -16 -168 -75 -218 -62 -53 -181 -71 -276 -42 -101 30 -154 113
-162 253 l-5 82 87 0 86 0 0 -69 c0 -84 17 -110 76 -118 84 -11 125 70 89 177
-15 45 -36 72 -139 174 -72 72 -132 142 -149 172 -62 118 -50 298 27 382 63
70 193 92 300 51z m-617 -4 c112 -33 145 -89 151 -256 6 -150 -10 -211 -69
-264 -22 -20 -39 -38 -37 -39 1 -1 15 -10 30 -19 15 -10 38 -36 50 -60 20 -38
23 -61 28 -237 4 -107 10 -203 14 -212 7 -16 0 -18 -82 -18 -73 0 -91 3 -96
16 -3 9 -6 78 -6 153 0 158 -12 237 -40 265 -13 14 -37 21 -80 24 l-60 4 0
-231 0 -231 -90 0 -90 0 0 560 0 560 163 0 c116 0 178 -4 214 -15z"/>
<path d="M360 990 l0 -170 50 0 c60 0 94 15 109 47 6 13 11 73 11 134 0 103
-1 111 -25 134 -20 21 -34 25 -85 25 l-60 0 0 -170z"/>
</g>
</svg>
